<svg id="Warstwa_1" data-name="Warstwa 1" xmlns="http://www.w3.org/2000/svg" viewBox="0 0 1000 300"><defs><style>.cls-1{fill:#fff;}.cls-2{fill:#13c1a3;}</style></defs><path class="cls-1" d="M270.23,90H372.56l-19.82,27.19H304.89l-3.23,18.61h46.87L344,161.41H297.15l-32-43.71Z"/><path class="cls-1" d="M638.72,209.79H595.93L634.47,164l-29-74,39.87,0,15.55,42.83L693.45,90h40.66Z"/><path class="cls-1" d="M723.65,209.79,744.77,90h39.44L763.1,209.79Zm82.63,0-30-59.53.16-.89L827.57,90h50.64l-57.94,59.53,37,60.24Z"/><path class="cls-1" d="M870.42,209.79,891.53,90H931L909.86,209.79Z"/><path class="cls-1" d="M292,209.79l20-27.19h43.17l-4.79,27.19Z"/><path class="cls-1" d="M528.54,182.6H594.2l-20.14,27.18H469.94l1-5.51,70.83-87H480.35L500.16,90h99.89L599,96.24Z"/><path class="cls-1" d="M431.08,117.51H458.2L478.26,90H435.93c-38.56,0-67.44,22.1-74.15,60-5.79,32.74,17.88,59.36,53,60h31.85l20.07-27.5H419.63c-15.32-.75-25.13-15-22.05-32.48S415.5,118.26,431.08,117.51Z"/><polygon class="cls-1" points="130.95 81.3 104.42 118.33 178.74 219.22 205.29 182.2 130.95 81.3"/><polygon class="cls-1" points="211.34 80.78 184.8 117.81 259.13 218.7 285.68 181.68 211.34 80.78"/><circle class="cls-2" cx="98.31" cy="187.19" r="29.59"/></svg>